<svg width="307" height="274" viewBox="0 0 307 274" fill="none" xmlns="http://www.w3.org/2000/svg">
<rect width="307" height="274" rx="29" fill="#1AA6B7"/>
<path d="M48.1355 122.214C48.2795 122.214 48.4235 122.244 48.5675 122.304C48.7115 122.352 48.8495 122.442 48.9815 122.574L51.3935 125.112C50.3375 126.492 49.0115 127.536 47.4155 128.244C45.8315 128.94 43.9535 129.288 41.7815 129.288C39.7895 129.288 38.0015 128.952 36.4175 128.28C34.8455 127.596 33.5075 126.66 32.4035 125.472C31.3115 124.272 30.4715 122.856 29.8835 121.224C29.2955 119.58 29.0015 117.798 29.0015 115.878C29.0015 113.922 29.3375 112.128 30.0095 110.496C30.6815 108.852 31.6175 107.436 32.8175 106.248C34.0295 105.06 35.4755 104.136 37.1555 103.476C38.8355 102.816 40.6895 102.486 42.7175 102.486C43.7015 102.486 44.6255 102.576 45.4895 102.756C46.3655 102.924 47.1815 103.164 47.9375 103.476C48.6935 103.776 49.3895 104.142 50.0255 104.574C50.6615 104.994 51.2255 105.462 51.7175 105.978L49.6655 108.732C49.5335 108.9 49.3775 109.056 49.1975 109.2C49.0175 109.332 48.7655 109.398 48.4415 109.398C48.2255 109.398 48.0215 109.35 47.8295 109.254C47.6375 109.158 47.4335 109.044 47.2175 108.912C47.0015 108.768 46.7615 108.618 46.4975 108.462C46.2455 108.294 45.9395 108.144 45.5795 108.012C45.2315 107.868 44.8175 107.748 44.3375 107.652C43.8695 107.556 43.3175 107.508 42.6815 107.508C41.5775 107.508 40.5695 107.706 39.6575 108.102C38.7455 108.486 37.9595 109.044 37.2995 109.776C36.6515 110.496 36.1415 111.372 35.7695 112.404C35.4095 113.436 35.2295 114.594 35.2295 115.878C35.2295 117.222 35.4095 118.416 35.7695 119.46C36.1415 120.504 36.6395 121.386 37.2635 122.106C37.8995 122.814 38.6375 123.354 39.4775 123.726C40.3175 124.098 41.2175 124.284 42.1775 124.284C42.7295 124.284 43.2335 124.26 43.6895 124.212C44.1455 124.152 44.5655 124.056 44.9495 123.924C45.3455 123.792 45.7175 123.624 46.0655 123.42C46.4255 123.204 46.7855 122.94 47.1455 122.628C47.2895 122.508 47.4455 122.412 47.6135 122.34C47.7815 122.256 47.9555 122.214 48.1355 122.214ZM78.5817 129H73.8657C73.3377 129 72.8997 128.88 72.5517 128.64C72.2157 128.388 71.9817 128.07 71.8497 127.686L70.3017 123.114H60.3297L58.7817 127.686C58.6617 128.022 58.4277 128.328 58.0797 128.604C57.7317 128.868 57.3057 129 56.8017 129H52.0497L62.2017 102.774H68.4297L78.5817 129ZM61.7337 118.974H68.8977L66.4857 111.792C66.3297 111.336 66.1437 110.802 65.9277 110.19C65.7237 109.566 65.5197 108.894 65.3157 108.174C65.1237 108.906 64.9257 109.584 64.7217 110.208C64.5177 110.832 64.3257 111.372 64.1457 111.828L61.7337 118.974ZM104.513 115.878C104.513 117.774 104.183 119.526 103.523 121.134C102.875 122.73 101.957 124.116 100.769 125.292C99.5806 126.456 98.1466 127.368 96.4666 128.028C94.7986 128.676 92.9446 129 90.9046 129H80.7166V102.774H90.9046C92.9446 102.774 94.7986 103.104 96.4666 103.764C98.1466 104.424 99.5806 105.336 100.769 106.5C101.957 107.664 102.875 109.05 103.523 110.658C104.183 112.254 104.513 113.994 104.513 115.878ZM98.2846 115.878C98.2846 114.582 98.1166 113.412 97.7806 112.368C97.4446 111.324 96.9586 110.442 96.3226 109.722C95.6986 108.99 94.9306 108.432 94.0186 108.048C93.1066 107.652 92.0686 107.454 90.9046 107.454H86.8366V124.32H90.9046C92.0686 124.32 93.1066 124.128 94.0186 123.744C94.9306 123.348 95.6986 122.79 96.3226 122.07C96.9586 121.338 97.4446 120.45 97.7806 119.406C98.1166 118.362 98.2846 117.186 98.2846 115.878ZM130.754 129H126.038C125.51 129 125.072 128.88 124.724 128.64C124.388 128.388 124.154 128.07 124.022 127.686L122.474 123.114H112.502L110.954 127.686C110.834 128.022 110.6 128.328 110.252 128.604C109.904 128.868 109.478 129 108.974 129H104.222L114.374 102.774H120.602L130.754 129ZM113.906 118.974H121.07L118.658 111.792C118.502 111.336 118.316 110.802 118.1 110.19C117.896 109.566 117.692 108.894 117.488 108.174C117.296 108.906 117.098 109.584 116.894 110.208C116.69 110.832 116.498 111.372 116.318 111.828L113.906 118.974ZM147.505 108.102C147.325 108.39 147.133 108.606 146.929 108.75C146.737 108.894 146.485 108.966 146.173 108.966C145.897 108.966 145.597 108.882 145.273 108.714C144.961 108.534 144.601 108.336 144.193 108.12C143.797 107.904 143.341 107.712 142.825 107.544C142.309 107.364 141.721 107.274 141.061 107.274C139.921 107.274 139.069 107.52 138.505 108.012C137.953 108.492 137.677 109.146 137.677 109.974C137.677 110.502 137.845 110.94 138.181 111.288C138.517 111.636 138.955 111.936 139.495 112.188C140.047 112.44 140.671 112.674 141.367 112.89C142.075 113.094 142.795 113.328 143.527 113.592C144.259 113.844 144.973 114.144 145.669 114.492C146.377 114.84 147.001 115.284 147.541 115.824C148.093 116.364 148.537 117.024 148.873 117.804C149.209 118.572 149.377 119.502 149.377 120.594C149.377 121.806 149.167 122.94 148.747 123.996C148.327 125.052 147.715 125.976 146.911 126.768C146.119 127.548 145.135 128.166 143.959 128.622C142.795 129.066 141.469 129.288 139.981 129.288C139.165 129.288 138.331 129.204 137.479 129.036C136.639 128.868 135.823 128.634 135.031 128.334C134.239 128.022 133.495 127.656 132.799 127.236C132.103 126.816 131.497 126.348 130.981 125.832L132.781 122.988C132.913 122.772 133.099 122.598 133.339 122.466C133.579 122.334 133.837 122.268 134.113 122.268C134.473 122.268 134.833 122.382 135.193 122.61C135.565 122.838 135.979 123.09 136.435 123.366C136.903 123.642 137.437 123.894 138.037 124.122C138.637 124.35 139.345 124.464 140.161 124.464C141.265 124.464 142.123 124.224 142.735 123.744C143.347 123.252 143.653 122.478 143.653 121.422C143.653 120.81 143.485 120.312 143.149 119.928C142.813 119.544 142.369 119.226 141.817 118.974C141.277 118.722 140.659 118.5 139.963 118.308C139.267 118.116 138.553 117.906 137.821 117.678C137.089 117.438 136.375 117.15 135.679 116.814C134.983 116.466 134.359 116.016 133.807 115.464C133.267 114.9 132.829 114.204 132.493 113.376C132.157 112.536 131.989 111.504 131.989 110.28C131.989 109.296 132.187 108.336 132.583 107.4C132.979 106.464 133.561 105.63 134.329 104.898C135.097 104.166 136.039 103.584 137.155 103.152C138.271 102.708 139.549 102.486 140.989 102.486C141.793 102.486 142.573 102.552 143.329 102.684C144.097 102.804 144.823 102.99 145.507 103.242C146.191 103.482 146.827 103.776 147.415 104.124C148.015 104.46 148.549 104.844 149.017 105.276L147.505 108.102ZM171.444 102.774V107.598H164.064V129H157.98V107.598H150.6V102.774H171.444ZM180.035 119.298V129H173.951V102.774H182.483C184.379 102.774 185.993 102.972 187.325 103.368C188.669 103.752 189.761 104.292 190.601 104.988C191.453 105.684 192.071 106.506 192.455 107.454C192.839 108.402 193.031 109.434 193.031 110.55C193.031 111.402 192.917 112.206 192.689 112.962C192.461 113.718 192.119 114.42 191.663 115.068C191.219 115.704 190.667 116.274 190.007 116.778C189.359 117.282 188.609 117.696 187.757 118.02C188.165 118.224 188.543 118.476 188.891 118.776C189.251 119.076 189.563 119.442 189.827 119.874L195.407 129H189.899C188.879 129 188.147 128.616 187.703 127.848L183.347 120.234C183.155 119.898 182.927 119.658 182.663 119.514C182.411 119.37 182.051 119.298 181.583 119.298H180.035ZM180.035 115.104H182.483C183.311 115.104 184.013 115.002 184.589 114.798C185.177 114.582 185.657 114.288 186.029 113.916C186.401 113.544 186.671 113.112 186.839 112.62C187.007 112.116 187.091 111.576 187.091 111C187.091 109.848 186.713 108.948 185.957 108.3C185.213 107.652 184.055 107.328 182.483 107.328H180.035V115.104ZM222.862 115.878C222.862 117.774 222.532 119.538 221.872 121.17C221.224 122.802 220.306 124.224 219.118 125.436C217.93 126.636 216.496 127.578 214.816 128.262C213.148 128.946 211.294 129.288 209.254 129.288C207.214 129.288 205.354 128.946 203.674 128.262C201.994 127.578 200.554 126.636 199.354 125.436C198.166 124.224 197.242 122.802 196.582 121.17C195.934 119.538 195.61 117.774 195.61 115.878C195.61 113.982 195.934 112.218 196.582 110.586C197.242 108.954 198.166 107.538 199.354 106.338C200.554 105.138 201.994 104.196 203.674 103.512C205.354 102.828 207.214 102.486 209.254 102.486C211.294 102.486 213.148 102.834 214.816 103.53C216.496 104.214 217.93 105.156 219.118 106.356C220.306 107.556 221.224 108.972 221.872 110.604C222.532 112.236 222.862 113.994 222.862 115.878ZM216.634 115.878C216.634 114.582 216.466 113.418 216.13 112.386C215.794 111.342 215.308 110.46 214.672 109.74C214.048 109.02 213.28 108.468 212.368 108.084C211.456 107.7 210.418 107.508 209.254 107.508C208.078 107.508 207.028 107.7 206.104 108.084C205.192 108.468 204.418 109.02 203.782 109.74C203.158 110.46 202.678 111.342 202.342 112.386C202.006 113.418 201.838 114.582 201.838 115.878C201.838 117.186 202.006 118.362 202.342 119.406C202.678 120.438 203.158 121.314 203.782 122.034C204.418 122.754 205.192 123.306 206.104 123.69C207.028 124.062 208.078 124.248 209.254 124.248C210.418 124.248 211.456 124.062 212.368 123.69C213.28 123.306 214.048 122.754 214.672 122.034C215.308 121.314 215.794 120.438 216.13 119.406C216.466 118.362 216.634 117.186 216.634 115.878ZM256.528 115.878C256.528 117.774 256.198 119.526 255.538 121.134C254.89 122.73 253.972 124.116 252.784 125.292C251.596 126.456 250.162 127.368 248.482 128.028C246.814 128.676 244.96 129 242.92 129H232.732V102.774H242.92C244.96 102.774 246.814 103.104 248.482 103.764C250.162 104.424 251.596 105.336 252.784 106.5C253.972 107.664 254.89 109.05 255.538 110.658C256.198 112.254 256.528 113.994 256.528 115.878ZM250.3 115.878C250.3 114.582 250.132 113.412 249.796 112.368C249.46 111.324 248.974 110.442 248.338 109.722C247.714 108.99 246.946 108.432 246.034 108.048C245.122 107.652 244.084 107.454 242.92 107.454H238.852V124.32H242.92C244.084 124.32 245.122 124.128 246.034 123.744C246.946 123.348 247.714 122.79 248.338 122.07C248.974 121.338 249.46 120.45 249.796 119.406C250.132 118.362 250.3 117.186 250.3 115.878ZM276.335 102.774V107.454H265.571V113.574H273.815V118.074H265.571V124.32H276.335V129H259.451V102.774H276.335ZM66.4803 163.234V172H60.3963V145.774H69.6483C71.4963 145.774 73.0803 145.996 74.4003 146.44C75.7323 146.872 76.8243 147.472 77.6763 148.24C78.5403 149.008 79.1763 149.914 79.5843 150.958C79.9923 152.002 80.1963 153.13 80.1963 154.342C80.1963 155.65 79.9863 156.85 79.5663 157.942C79.1463 159.034 78.5043 159.97 77.6403 160.75C76.7763 161.53 75.6783 162.142 74.3463 162.586C73.0263 163.018 71.4603 163.234 69.6483 163.234H66.4803ZM66.4803 158.644H69.6483C71.2323 158.644 72.3723 158.266 73.0683 157.51C73.7643 156.754 74.1123 155.698 74.1123 154.342C74.1123 153.742 74.0223 153.196 73.8423 152.704C73.6623 152.212 73.3863 151.792 73.0143 151.444C72.6543 151.084 72.1923 150.808 71.6283 150.616C71.0763 150.424 70.4163 150.328 69.6483 150.328H66.4803V158.644ZM104.703 172H99.9868C99.4588 172 99.0208 171.88 98.6728 171.64C98.3368 171.388 98.1028 171.07 97.9708 170.686L96.4228 166.114H86.4508L84.9028 170.686C84.7828 171.022 84.5488 171.328 84.2008 171.604C83.8528 171.868 83.4268 172 82.9228 172H78.1708L88.3228 145.774H94.5508L104.703 172ZM87.8548 161.974H95.0188L92.6068 154.792C92.4508 154.336 92.2648 153.802 92.0488 153.19C91.8448 152.566 91.6408 151.894 91.4368 151.174C91.2448 151.906 91.0468 152.584 90.8428 153.208C90.6388 153.832 90.4468 154.372 90.2668 154.828L87.8548 161.974ZM123.37 165.214C123.514 165.214 123.658 165.244 123.802 165.304C123.946 165.352 124.084 165.442 124.216 165.574L126.628 168.112C125.572 169.492 124.246 170.536 122.65 171.244C121.066 171.94 119.188 172.288 117.016 172.288C115.024 172.288 113.236 171.952 111.652 171.28C110.08 170.596 108.742 169.66 107.638 168.472C106.546 167.272 105.706 165.856 105.118 164.224C104.53 162.58 104.236 160.798 104.236 158.878C104.236 156.922 104.572 155.128 105.244 153.496C105.916 151.852 106.852 150.436 108.052 149.248C109.264 148.06 110.71 147.136 112.39 146.476C114.07 145.816 115.924 145.486 117.952 145.486C118.936 145.486 119.86 145.576 120.724 145.756C121.6 145.924 122.416 146.164 123.172 146.476C123.928 146.776 124.624 147.142 125.26 147.574C125.896 147.994 126.46 148.462 126.952 148.978L124.9 151.732C124.768 151.9 124.612 152.056 124.432 152.2C124.252 152.332 124 152.398 123.676 152.398C123.46 152.398 123.256 152.35 123.064 152.254C122.872 152.158 122.668 152.044 122.452 151.912C122.236 151.768 121.996 151.618 121.732 151.462C121.48 151.294 121.174 151.144 120.814 151.012C120.466 150.868 120.052 150.748 119.572 150.652C119.104 150.556 118.552 150.508 117.916 150.508C116.812 150.508 115.804 150.706 114.892 151.102C113.98 151.486 113.194 152.044 112.534 152.776C111.886 153.496 111.376 154.372 111.004 155.404C110.644 156.436 110.464 157.594 110.464 158.878C110.464 160.222 110.644 161.416 111.004 162.46C111.376 163.504 111.874 164.386 112.498 165.106C113.134 165.814 113.872 166.354 114.712 166.726C115.552 167.098 116.452 167.284 117.412 167.284C117.964 167.284 118.468 167.26 118.924 167.212C119.38 167.152 119.8 167.056 120.184 166.924C120.58 166.792 120.952 166.624 121.3 166.42C121.66 166.204 122.02 165.94 122.38 165.628C122.524 165.508 122.68 165.412 122.848 165.34C123.016 165.256 123.19 165.214 123.37 165.214ZM136.068 172H129.948V145.774H136.068V172ZM157.823 145.774V150.454H147.059V156.574H155.303V161.074H147.059V167.32H157.823V172H140.939V145.774H157.823ZM164.499 145.774C164.763 145.774 164.985 145.786 165.165 145.81C165.345 145.834 165.507 145.882 165.651 145.954C165.795 146.014 165.933 146.104 166.065 146.224C166.197 146.344 166.347 146.506 166.515 146.71L178.971 162.46C178.923 161.956 178.887 161.47 178.863 161.002C178.839 160.522 178.827 160.072 178.827 159.652V145.774H184.191V172H181.023C180.555 172 180.159 171.928 179.835 171.784C179.511 171.64 179.199 171.376 178.899 170.992L166.533 155.368C166.569 155.824 166.599 156.274 166.623 156.718C166.647 157.15 166.659 157.558 166.659 157.942V172H161.295V145.774H164.499ZM207.55 145.774V150.598H200.17V172H194.086V150.598H186.706V145.774H207.55ZM226.94 145.774V150.454H216.176V156.574H224.42V161.074H216.176V167.32H226.94V172H210.056V145.774H226.94ZM245.028 151.102C244.848 151.39 244.656 151.606 244.452 151.75C244.26 151.894 244.008 151.966 243.696 151.966C243.42 151.966 243.12 151.882 242.796 151.714C242.484 151.534 242.124 151.336 241.716 151.12C241.32 150.904 240.864 150.712 240.348 150.544C239.832 150.364 239.244 150.274 238.584 150.274C237.444 150.274 236.592 150.52 236.028 151.012C235.476 151.492 235.2 152.146 235.2 152.974C235.2 153.502 235.368 153.94 235.704 154.288C236.04 154.636 236.478 154.936 237.018 155.188C237.57 155.44 238.194 155.674 238.89 155.89C239.598 156.094 240.318 156.328 241.05 156.592C241.782 156.844 242.496 157.144 243.192 157.492C243.9 157.84 244.524 158.284 245.064 158.824C245.616 159.364 246.06 160.024 246.396 160.804C246.732 161.572 246.9 162.502 246.9 163.594C246.9 164.806 246.69 165.94 246.27 166.996C245.85 168.052 245.238 168.976 244.434 169.768C243.642 170.548 242.658 171.166 241.482 171.622C240.318 172.066 238.992 172.288 237.504 172.288C236.688 172.288 235.854 172.204 235.002 172.036C234.162 171.868 233.346 171.634 232.554 171.334C231.762 171.022 231.018 170.656 230.322 170.236C229.626 169.816 229.02 169.348 228.504 168.832L230.304 165.988C230.436 165.772 230.622 165.598 230.862 165.466C231.102 165.334 231.36 165.268 231.636 165.268C231.996 165.268 232.356 165.382 232.716 165.61C233.088 165.838 233.502 166.09 233.958 166.366C234.426 166.642 234.96 166.894 235.56 167.122C236.16 167.35 236.868 167.464 237.684 167.464C238.788 167.464 239.646 167.224 240.258 166.744C240.87 166.252 241.176 165.478 241.176 164.422C241.176 163.81 241.008 163.312 240.672 162.928C240.336 162.544 239.892 162.226 239.34 161.974C238.8 161.722 238.182 161.5 237.486 161.308C236.79 161.116 236.076 160.906 235.344 160.678C234.612 160.438 233.898 160.15 233.202 159.814C232.506 159.466 231.882 159.016 231.33 158.464C230.79 157.9 230.352 157.204 230.016 156.376C229.68 155.536 229.512 154.504 229.512 153.28C229.512 152.296 229.71 151.336 230.106 150.4C230.502 149.464 231.084 148.63 231.852 147.898C232.62 147.166 233.562 146.584 234.678 146.152C235.794 145.708 237.072 145.486 238.512 145.486C239.316 145.486 240.096 145.552 240.852 145.684C241.62 145.804 242.346 145.99 243.03 146.242C243.714 146.482 244.35 146.776 244.938 147.124C245.538 147.46 246.072 147.844 246.54 148.276L245.028 151.102Z" fill="white"/>
</svg>
