<svg width="307" height="274" viewBox="0 0 307 274" fill="none" xmlns="http://www.w3.org/2000/svg">
<rect width="307" height="274" rx="29" fill="#F56A79"/>
<path d="M67.8406 122.214C67.9846 122.214 68.1286 122.244 68.2726 122.304C68.4166 122.352 68.5546 122.442 68.6866 122.574L71.0986 125.112C70.0426 126.492 68.7166 127.536 67.1206 128.244C65.5366 128.94 63.6586 129.288 61.4866 129.288C59.4946 129.288 57.7066 128.952 56.1226 128.28C54.5506 127.596 53.2126 126.66 52.1086 125.472C51.0166 124.272 50.1766 122.856 49.5886 121.224C49.0006 119.58 48.7066 117.798 48.7066 115.878C48.7066 113.922 49.0426 112.128 49.7146 110.496C50.3866 108.852 51.3226 107.436 52.5226 106.248C53.7346 105.06 55.1806 104.136 56.8606 103.476C58.5406 102.816 60.3946 102.486 62.4226 102.486C63.4066 102.486 64.3306 102.576 65.1946 102.756C66.0706 102.924 66.8866 103.164 67.6426 103.476C68.3986 103.776 69.0946 104.142 69.7306 104.574C70.3666 104.994 70.9306 105.462 71.4226 105.978L69.3706 108.732C69.2386 108.9 69.0826 109.056 68.9026 109.2C68.7226 109.332 68.4706 109.398 68.1466 109.398C67.9306 109.398 67.7266 109.35 67.5346 109.254C67.3426 109.158 67.1386 109.044 66.9226 108.912C66.7066 108.768 66.4666 108.618 66.2026 108.462C65.9506 108.294 65.6446 108.144 65.2846 108.012C64.9366 107.868 64.5226 107.748 64.0426 107.652C63.5746 107.556 63.0226 107.508 62.3866 107.508C61.2826 107.508 60.2746 107.706 59.3626 108.102C58.4506 108.486 57.6646 109.044 57.0046 109.776C56.3566 110.496 55.8466 111.372 55.4746 112.404C55.1146 113.436 54.9346 114.594 54.9346 115.878C54.9346 117.222 55.1146 118.416 55.4746 119.46C55.8466 120.504 56.3446 121.386 56.9686 122.106C57.6046 122.814 58.3426 123.354 59.1826 123.726C60.0226 124.098 60.9226 124.284 61.8826 124.284C62.4346 124.284 62.9386 124.26 63.3946 124.212C63.8506 124.152 64.2706 124.056 64.6546 123.924C65.0506 123.792 65.4226 123.624 65.7706 123.42C66.1306 123.204 66.4906 122.94 66.8506 122.628C66.9946 122.508 67.1506 122.412 67.3186 122.34C67.4866 122.256 67.6606 122.214 67.8406 122.214ZM99.7628 115.878C99.7628 117.774 99.4328 119.538 98.7728 121.17C98.1248 122.802 97.2068 124.224 96.0188 125.436C94.8308 126.636 93.3968 127.578 91.7168 128.262C90.0488 128.946 88.1948 129.288 86.1548 129.288C84.1148 129.288 82.2548 128.946 80.5748 128.262C78.8948 127.578 77.4548 126.636 76.2548 125.436C75.0668 124.224 74.1428 122.802 73.4828 121.17C72.8348 119.538 72.5108 117.774 72.5108 115.878C72.5108 113.982 72.8348 112.218 73.4828 110.586C74.1428 108.954 75.0668 107.538 76.2548 106.338C77.4548 105.138 78.8948 104.196 80.5748 103.512C82.2548 102.828 84.1148 102.486 86.1548 102.486C88.1948 102.486 90.0488 102.834 91.7168 103.53C93.3968 104.214 94.8308 105.156 96.0188 106.356C97.2068 107.556 98.1248 108.972 98.7728 110.604C99.4328 112.236 99.7628 113.994 99.7628 115.878ZM93.5348 115.878C93.5348 114.582 93.3668 113.418 93.0308 112.386C92.6948 111.342 92.2088 110.46 91.5728 109.74C90.9488 109.02 90.1808 108.468 89.2688 108.084C88.3568 107.7 87.3188 107.508 86.1548 107.508C84.9788 107.508 83.9288 107.7 83.0048 108.084C82.0928 108.468 81.3188 109.02 80.6828 109.74C80.0588 110.46 79.5788 111.342 79.2428 112.386C78.9068 113.418 78.7388 114.582 78.7388 115.878C78.7388 117.186 78.9068 118.362 79.2428 119.406C79.5788 120.438 80.0588 121.314 80.6828 122.034C81.3188 122.754 82.0928 123.306 83.0048 123.69C83.9288 124.062 84.9788 124.248 86.1548 124.248C87.3188 124.248 88.3568 124.062 89.2688 123.69C90.1808 123.306 90.9488 122.754 91.5728 122.034C92.2088 121.314 92.6948 120.438 93.0308 119.406C93.3668 118.362 93.5348 117.186 93.5348 115.878ZM105.876 102.774C106.14 102.774 106.362 102.786 106.542 102.81C106.722 102.834 106.884 102.882 107.028 102.954C107.172 103.014 107.31 103.104 107.442 103.224C107.574 103.344 107.724 103.506 107.892 103.71L120.348 119.46C120.3 118.956 120.264 118.47 120.24 118.002C120.216 117.522 120.204 117.072 120.204 116.652V102.774H125.568V129H122.4C121.932 129 121.536 128.928 121.212 128.784C120.888 128.64 120.576 128.376 120.276 127.992L107.91 112.368C107.946 112.824 107.976 113.274 108 113.718C108.024 114.15 108.036 114.558 108.036 114.942V129H102.672V102.774H105.876ZM144.499 108.102C144.319 108.39 144.127 108.606 143.923 108.75C143.731 108.894 143.479 108.966 143.167 108.966C142.891 108.966 142.591 108.882 142.267 108.714C141.955 108.534 141.595 108.336 141.187 108.12C140.791 107.904 140.335 107.712 139.819 107.544C139.303 107.364 138.715 107.274 138.055 107.274C136.915 107.274 136.063 107.52 135.499 108.012C134.947 108.492 134.671 109.146 134.671 109.974C134.671 110.502 134.839 110.94 135.175 111.288C135.511 111.636 135.949 111.936 136.489 112.188C137.041 112.44 137.665 112.674 138.361 112.89C139.069 113.094 139.789 113.328 140.521 113.592C141.253 113.844 141.967 114.144 142.663 114.492C143.371 114.84 143.995 115.284 144.535 115.824C145.087 116.364 145.531 117.024 145.867 117.804C146.203 118.572 146.371 119.502 146.371 120.594C146.371 121.806 146.161 122.94 145.741 123.996C145.321 125.052 144.709 125.976 143.905 126.768C143.113 127.548 142.129 128.166 140.953 128.622C139.789 129.066 138.463 129.288 136.975 129.288C136.159 129.288 135.325 129.204 134.473 129.036C133.633 128.868 132.817 128.634 132.025 128.334C131.233 128.022 130.489 127.656 129.793 127.236C129.097 126.816 128.491 126.348 127.975 125.832L129.775 122.988C129.907 122.772 130.093 122.598 130.333 122.466C130.573 122.334 130.831 122.268 131.107 122.268C131.467 122.268 131.827 122.382 132.187 122.61C132.559 122.838 132.973 123.09 133.429 123.366C133.897 123.642 134.431 123.894 135.031 124.122C135.631 124.35 136.339 124.464 137.155 124.464C138.259 124.464 139.117 124.224 139.729 123.744C140.341 123.252 140.647 122.478 140.647 121.422C140.647 120.81 140.479 120.312 140.143 119.928C139.807 119.544 139.363 119.226 138.811 118.974C138.271 118.722 137.653 118.5 136.957 118.308C136.261 118.116 135.547 117.906 134.815 117.678C134.083 117.438 133.369 117.15 132.673 116.814C131.977 116.466 131.353 116.016 130.801 115.464C130.261 114.9 129.823 114.204 129.487 113.376C129.151 112.536 128.983 111.504 128.983 110.28C128.983 109.296 129.181 108.336 129.577 107.4C129.973 106.464 130.555 105.63 131.323 104.898C132.091 104.166 133.033 103.584 134.149 103.152C135.265 102.708 136.543 102.486 137.983 102.486C138.787 102.486 139.567 102.552 140.323 102.684C141.091 102.804 141.817 102.99 142.501 103.242C143.185 103.482 143.821 103.776 144.409 104.124C145.009 104.46 145.543 104.844 146.011 105.276L144.499 108.102ZM160.302 124.194C161.118 124.194 161.844 124.062 162.48 123.798C163.128 123.522 163.674 123.132 164.118 122.628C164.562 122.124 164.898 121.512 165.126 120.792C165.366 120.06 165.486 119.232 165.486 118.308V102.774H171.57V118.308C171.57 119.916 171.306 121.392 170.778 122.736C170.262 124.08 169.518 125.238 168.546 126.21C167.574 127.182 166.392 127.938 165 128.478C163.608 129.018 162.042 129.288 160.302 129.288C158.55 129.288 156.978 129.018 155.586 128.478C154.194 127.938 153.012 127.182 152.04 126.21C151.068 125.238 150.324 124.08 149.808 122.736C149.292 121.392 149.034 119.916 149.034 118.308V102.774H155.118V118.29C155.118 119.214 155.232 120.042 155.46 120.774C155.7 121.494 156.042 122.112 156.486 122.628C156.93 123.132 157.47 123.522 158.106 123.798C158.754 124.062 159.486 124.194 160.302 124.194ZM181.599 124.14H191.319V129H175.515V102.774H181.599V124.14ZM209.993 102.774V107.598H202.613V129H196.529V107.598H189.149V102.774H209.993ZM234.025 129H229.309C228.781 129 228.343 128.88 227.995 128.64C227.659 128.388 227.425 128.07 227.293 127.686L225.745 123.114H215.773L214.225 127.686C214.105 128.022 213.871 128.328 213.523 128.604C213.175 128.868 212.749 129 212.245 129H207.493L217.645 102.774H223.873L234.025 129ZM217.177 118.974H224.341L221.929 111.792C221.773 111.336 221.587 110.802 221.371 110.19C221.167 109.566 220.963 108.894 220.759 108.174C220.567 108.906 220.369 109.584 220.165 110.208C219.961 110.832 219.769 111.372 219.589 111.828L217.177 118.974ZM242.244 119.298V129H236.16V102.774H244.692C246.588 102.774 248.202 102.972 249.534 103.368C250.878 103.752 251.97 104.292 252.81 104.988C253.662 105.684 254.28 106.506 254.664 107.454C255.048 108.402 255.24 109.434 255.24 110.55C255.24 111.402 255.126 112.206 254.898 112.962C254.67 113.718 254.328 114.42 253.872 115.068C253.428 115.704 252.876 116.274 252.216 116.778C251.568 117.282 250.818 117.696 249.966 118.02C250.374 118.224 250.752 118.476 251.1 118.776C251.46 119.076 251.772 119.442 252.036 119.874L257.616 129H252.108C251.088 129 250.356 128.616 249.912 127.848L245.556 120.234C245.364 119.898 245.136 119.658 244.872 119.514C244.62 119.37 244.26 119.298 243.792 119.298H242.244ZM242.244 115.104H244.692C245.52 115.104 246.222 115.002 246.798 114.798C247.386 114.582 247.866 114.288 248.238 113.916C248.61 113.544 248.88 113.112 249.048 112.62C249.216 112.116 249.3 111.576 249.3 111C249.3 109.848 248.922 108.948 248.166 108.3C247.422 107.652 246.264 107.328 244.692 107.328H242.244V115.104ZM76.2362 163.234V172H70.1522V145.774H79.4042C81.2522 145.774 82.8362 145.996 84.1562 146.44C85.4882 146.872 86.5802 147.472 87.4322 148.24C88.2962 149.008 88.9322 149.914 89.3402 150.958C89.7482 152.002 89.9522 153.13 89.9522 154.342C89.9522 155.65 89.7422 156.85 89.3222 157.942C88.9022 159.034 88.2602 159.97 87.3962 160.75C86.5322 161.53 85.4342 162.142 84.1022 162.586C82.7822 163.018 81.2162 163.234 79.4042 163.234H76.2362ZM76.2362 158.644H79.4042C80.9882 158.644 82.1282 158.266 82.8242 157.51C83.5202 156.754 83.8682 155.698 83.8682 154.342C83.8682 153.742 83.7782 153.196 83.5982 152.704C83.4182 152.212 83.1422 151.792 82.7702 151.444C82.4102 151.084 81.9482 150.808 81.3842 150.616C80.8322 150.424 80.1722 150.328 79.4042 150.328H76.2362V158.644ZM114.459 172H109.743C109.215 172 108.777 171.88 108.429 171.64C108.093 171.388 107.859 171.07 107.727 170.686L106.179 166.114H96.2066L94.6586 170.686C94.5386 171.022 94.3046 171.328 93.9566 171.604C93.6086 171.868 93.1826 172 92.6786 172H87.9266L98.0786 145.774H104.307L114.459 172ZM97.6106 161.974H104.775L102.363 154.792C102.207 154.336 102.021 153.802 101.805 153.19C101.601 152.566 101.397 151.894 101.193 151.174C101.001 151.906 100.803 152.584 100.599 153.208C100.395 153.832 100.203 154.372 100.023 154.828L97.6106 161.974ZM133.126 165.214C133.27 165.214 133.414 165.244 133.558 165.304C133.702 165.352 133.84 165.442 133.972 165.574L136.384 168.112C135.328 169.492 134.002 170.536 132.406 171.244C130.822 171.94 128.944 172.288 126.772 172.288C124.78 172.288 122.992 171.952 121.408 171.28C119.836 170.596 118.498 169.66 117.394 168.472C116.302 167.272 115.462 165.856 114.874 164.224C114.286 162.58 113.992 160.798 113.992 158.878C113.992 156.922 114.328 155.128 115 153.496C115.672 151.852 116.608 150.436 117.808 149.248C119.02 148.06 120.466 147.136 122.146 146.476C123.826 145.816 125.68 145.486 127.708 145.486C128.692 145.486 129.616 145.576 130.48 145.756C131.356 145.924 132.172 146.164 132.928 146.476C133.684 146.776 134.38 147.142 135.016 147.574C135.652 147.994 136.216 148.462 136.708 148.978L134.656 151.732C134.524 151.9 134.368 152.056 134.188 152.2C134.008 152.332 133.756 152.398 133.432 152.398C133.216 152.398 133.012 152.35 132.82 152.254C132.628 152.158 132.424 152.044 132.208 151.912C131.992 151.768 131.752 151.618 131.488 151.462C131.236 151.294 130.93 151.144 130.57 151.012C130.222 150.868 129.808 150.748 129.328 150.652C128.86 150.556 128.308 150.508 127.672 150.508C126.568 150.508 125.56 150.706 124.648 151.102C123.736 151.486 122.95 152.044 122.29 152.776C121.642 153.496 121.132 154.372 120.76 155.404C120.4 156.436 120.22 157.594 120.22 158.878C120.22 160.222 120.4 161.416 120.76 162.46C121.132 163.504 121.63 164.386 122.254 165.106C122.89 165.814 123.628 166.354 124.468 166.726C125.308 167.098 126.208 167.284 127.168 167.284C127.72 167.284 128.224 167.26 128.68 167.212C129.136 167.152 129.556 167.056 129.94 166.924C130.336 166.792 130.708 166.624 131.056 166.42C131.416 166.204 131.776 165.94 132.136 165.628C132.28 165.508 132.436 165.412 132.604 165.34C132.772 165.256 132.946 165.214 133.126 165.214ZM145.824 172H139.704V145.774H145.824V172ZM167.579 145.774V150.454H156.815V156.574H165.059V161.074H156.815V167.32H167.579V172H150.695V145.774H167.579ZM174.255 145.774C174.519 145.774 174.741 145.786 174.921 145.81C175.101 145.834 175.263 145.882 175.407 145.954C175.551 146.014 175.689 146.104 175.821 146.224C175.953 146.344 176.103 146.506 176.271 146.71L188.727 162.46C188.679 161.956 188.643 161.47 188.619 161.002C188.595 160.522 188.583 160.072 188.583 159.652V145.774H193.947V172H190.779C190.311 172 189.915 171.928 189.591 171.784C189.267 171.64 188.955 171.376 188.655 170.992L176.289 155.368C176.325 155.824 176.355 156.274 176.379 156.718C176.403 157.15 176.415 157.558 176.415 157.942V172H171.051V145.774H174.255ZM217.306 145.774V150.598H209.926V172H203.842V150.598H196.462V145.774H217.306ZM236.696 145.774V150.454H225.932V156.574H234.176V161.074H225.932V167.32H236.696V172H219.812V145.774H236.696Z" fill="white"/>
</svg>
