<svg width="64" height="64" viewBox="0 0 64 64" fill="none" xmlns="http://www.w3.org/2000/svg">
<path fill-rule="evenodd" clip-rule="evenodd" d="M51.729 11.4551C55.464 13.4901 58 17.4511 58 22.0001V42.0001C58 48.6231 52.623 54.0001 46 54.0001H26C20.25 54.0001 15.439 49.947 14.271 44.545C15.974 45.473 17.926 46.0001 20 46.0001H40C46.623 46.0001 52 40.6231 52 34.0001V14.0001C52 13.1271 51.907 12.2761 51.729 11.4551Z" fill="#CBCFE0"/>
<path fill-rule="evenodd" clip-rule="evenodd" d="M42.0009 30H6.00018C4.89642 30 4.00098 30.896 4.00098 32C4.00098 33.104 4.89642 34 6.00018 34H42.0009C43.1047 34 44.0001 33.104 44.0001 32C44.0001 30.896 43.1047 30 42.0009 30Z" fill="#4D76FD"/>
<path fill-rule="evenodd" clip-rule="evenodd" d="M39.1718 31.9998L30.5858 23.4138C29.8048 22.6338 29.8048 21.3657 30.5858 20.5857C31.3658 19.8047 32.6338 19.8047 33.4138 20.5857L43.4138 30.5857C44.1948 31.3667 44.1948 32.6328 43.4138 33.4138L33.4138 43.4138C32.6338 44.1948 31.3658 44.1948 30.5858 43.4138C29.8048 42.6338 29.8048 41.3658 30.5858 40.5858L39.1718 31.9998Z" fill="#4D76FD"/>
<path fill-rule="evenodd" clip-rule="evenodd" d="M12 40V42C12 49.727 18.273 56 26 56H46C53.727 56 60 49.727 60 42V22C60 14.273 53.727 8 46 8H26C18.273 8 12 14.273 12 22V32C12 33.104 12.896 34 14 34C15.104 34 16 33.104 16 32V22C16 16.481 20.481 12 26 12H46C51.519 12 56 16.481 56 22V42C56 47.519 51.519 52 46 52H26C20.481 52 16 47.519 16 42V40C16 38.896 15.104 38 14 38C12.896 38 12 38.896 12 40Z" fill="#4D76FD"/>
</svg>
