<svg width="307" height="274" viewBox="0 0 307 274" fill="none" xmlns="http://www.w3.org/2000/svg">
<rect width="307" height="274" rx="29" fill="#FF414D"/>
<path d="M65.4157 124.194C66.2317 124.194 66.9577 124.062 67.5937 123.798C68.2417 123.522 68.7877 123.132 69.2317 122.628C69.6757 122.124 70.0117 121.512 70.2397 120.792C70.4797 120.06 70.5997 119.232 70.5997 118.308V102.774H76.6837V118.308C76.6837 119.916 76.4197 121.392 75.8917 122.736C75.3757 124.08 74.6317 125.238 73.6597 126.21C72.6877 127.182 71.5057 127.938 70.1137 128.478C68.7217 129.018 67.1557 129.288 65.4157 129.288C63.6637 129.288 62.0917 129.018 60.6997 128.478C59.3077 127.938 58.1257 127.182 57.1537 126.21C56.1817 125.238 55.4377 124.08 54.9217 122.736C54.4057 121.392 54.1477 119.916 54.1477 118.308V102.774H60.2317V118.29C60.2317 119.214 60.3457 120.042 60.5737 120.774C60.8137 121.494 61.1557 122.112 61.5997 122.628C62.0437 123.132 62.5837 123.522 63.2197 123.798C63.8677 124.062 64.5997 124.194 65.4157 124.194ZM86.7128 120.234V129H80.6288V102.774H89.8808C91.7288 102.774 93.3128 102.996 94.6328 103.44C95.9648 103.872 97.0568 104.472 97.9088 105.24C98.7728 106.008 99.4088 106.914 99.8168 107.958C100.225 109.002 100.429 110.13 100.429 111.342C100.429 112.65 100.219 113.85 99.7988 114.942C99.3788 116.034 98.7368 116.97 97.8728 117.75C97.0088 118.53 95.9108 119.142 94.5788 119.586C93.2588 120.018 91.6928 120.234 89.8808 120.234H86.7128ZM86.7128 115.644H89.8808C91.4648 115.644 92.6048 115.266 93.3008 114.51C93.9968 113.754 94.3448 112.698 94.3448 111.342C94.3448 110.742 94.2548 110.196 94.0748 109.704C93.8948 109.212 93.6188 108.792 93.2468 108.444C92.8868 108.084 92.4248 107.808 91.8608 107.616C91.3088 107.424 90.6488 107.328 89.8808 107.328H86.7128V115.644ZM109.67 124.14H119.39V129H103.586V102.774H109.67V124.14ZM146.696 115.878C146.696 117.774 146.366 119.538 145.706 121.17C145.058 122.802 144.14 124.224 142.952 125.436C141.764 126.636 140.33 127.578 138.65 128.262C136.982 128.946 135.128 129.288 133.088 129.288C131.048 129.288 129.188 128.946 127.508 128.262C125.828 127.578 124.388 126.636 123.188 125.436C122 124.224 121.076 122.802 120.416 121.17C119.768 119.538 119.444 117.774 119.444 115.878C119.444 113.982 119.768 112.218 120.416 110.586C121.076 108.954 122 107.538 123.188 106.338C124.388 105.138 125.828 104.196 127.508 103.512C129.188 102.828 131.048 102.486 133.088 102.486C135.128 102.486 136.982 102.834 138.65 103.53C140.33 104.214 141.764 105.156 142.952 106.356C144.14 107.556 145.058 108.972 145.706 110.604C146.366 112.236 146.696 113.994 146.696 115.878ZM140.468 115.878C140.468 114.582 140.3 113.418 139.964 112.386C139.628 111.342 139.142 110.46 138.506 109.74C137.882 109.02 137.114 108.468 136.202 108.084C135.29 107.7 134.252 107.508 133.088 107.508C131.912 107.508 130.862 107.7 129.938 108.084C129.026 108.468 128.252 109.02 127.616 109.74C126.992 110.46 126.512 111.342 126.176 112.386C125.84 113.418 125.672 114.582 125.672 115.878C125.672 117.186 125.84 118.362 126.176 119.406C126.512 120.438 126.992 121.314 127.616 122.034C128.252 122.754 129.026 123.306 129.938 123.69C130.862 124.062 131.912 124.248 133.088 124.248C134.252 124.248 135.29 124.062 136.202 123.69C137.114 123.306 137.882 122.754 138.506 122.034C139.142 121.314 139.628 120.438 139.964 119.406C140.3 118.362 140.468 117.186 140.468 115.878ZM172.923 129H168.207C167.679 129 167.241 128.88 166.893 128.64C166.557 128.388 166.323 128.07 166.191 127.686L164.643 123.114H154.671L153.123 127.686C153.003 128.022 152.769 128.328 152.421 128.604C152.073 128.868 151.647 129 151.143 129H146.391L156.543 102.774H162.771L172.923 129ZM156.075 118.974H163.239L160.827 111.792C160.671 111.336 160.485 110.802 160.269 110.19C160.065 109.566 159.861 108.894 159.657 108.174C159.465 108.906 159.267 109.584 159.063 110.208C158.859 110.832 158.667 111.372 158.487 111.828L156.075 118.974ZM198.854 115.878C198.854 117.774 198.524 119.526 197.864 121.134C197.216 122.73 196.298 124.116 195.11 125.292C193.922 126.456 192.488 127.368 190.808 128.028C189.14 128.676 187.286 129 185.246 129H175.058V102.774H185.246C187.286 102.774 189.14 103.104 190.808 103.764C192.488 104.424 193.922 105.336 195.11 106.5C196.298 107.664 197.216 109.05 197.864 110.658C198.524 112.254 198.854 113.994 198.854 115.878ZM192.626 115.878C192.626 114.582 192.458 113.412 192.122 112.368C191.786 111.324 191.3 110.442 190.664 109.722C190.04 108.99 189.272 108.432 188.36 108.048C187.448 107.652 186.41 107.454 185.246 107.454H181.178V124.32H185.246C186.41 124.32 187.448 124.128 188.36 123.744C189.272 123.348 190.04 122.79 190.664 122.07C191.3 121.338 191.786 120.45 192.122 119.406C192.458 118.362 192.626 117.186 192.626 115.878ZM232.534 115.878C232.534 117.774 232.204 119.526 231.544 121.134C230.896 122.73 229.978 124.116 228.79 125.292C227.602 126.456 226.168 127.368 224.488 128.028C222.82 128.676 220.966 129 218.926 129H208.738V102.774H218.926C220.966 102.774 222.82 103.104 224.488 103.764C226.168 104.424 227.602 105.336 228.79 106.5C229.978 107.664 230.896 109.05 231.544 110.658C232.204 112.254 232.534 113.994 232.534 115.878ZM226.306 115.878C226.306 114.582 226.138 113.412 225.802 112.368C225.466 111.324 224.98 110.442 224.344 109.722C223.72 108.99 222.952 108.432 222.04 108.048C221.128 107.652 220.09 107.454 218.926 107.454H214.858V124.32H218.926C220.09 124.32 221.128 124.128 222.04 123.744C222.952 123.348 223.72 122.79 224.344 122.07C224.98 121.338 225.466 120.45 225.802 119.406C226.138 118.362 226.306 117.186 226.306 115.878ZM252.341 102.774V107.454H241.577V113.574H249.821V118.074H241.577V124.32H252.341V129H235.457V102.774H252.341ZM98.9366 145.774V150.454H88.1726V156.574H96.4166V161.074H88.1726V167.32H98.9366V172H82.0526V145.774H98.9366ZM108.87 158.518L100.752 145.774H106.836C107.232 145.774 107.52 145.828 107.7 145.936C107.892 146.032 108.06 146.2 108.204 146.44L113.424 155.278C113.484 155.122 113.55 154.972 113.622 154.828C113.706 154.684 113.796 154.534 113.892 154.378L118.464 146.53C118.764 146.026 119.172 145.774 119.688 145.774H125.52L117.294 158.248L125.7 172H119.616C119.22 172 118.896 171.904 118.644 171.712C118.404 171.52 118.212 171.292 118.068 171.028L112.812 161.848C112.716 162.112 112.608 162.34 112.488 162.532L107.592 171.028C107.448 171.28 107.256 171.508 107.016 171.712C106.776 171.904 106.476 172 106.116 172H100.428L108.87 158.518ZM152.445 172H147.729C147.201 172 146.763 171.88 146.415 171.64C146.079 171.388 145.845 171.07 145.713 170.686L144.165 166.114H134.193L132.645 170.686C132.525 171.022 132.291 171.328 131.943 171.604C131.595 171.868 131.169 172 130.665 172H125.913L136.065 145.774H142.293L152.445 172ZM135.597 161.974H142.761L140.349 154.792C140.193 154.336 140.007 153.802 139.791 153.19C139.587 152.566 139.383 151.894 139.179 151.174C138.987 151.906 138.789 152.584 138.585 153.208C138.381 153.832 138.189 154.372 138.009 154.828L135.597 161.974ZM167.99 160.012C168.23 160.468 168.458 160.942 168.674 161.434C168.902 161.926 169.118 162.43 169.322 162.946C169.526 162.418 169.742 161.908 169.97 161.416C170.198 160.912 170.432 160.426 170.672 159.958L177.404 146.71C177.524 146.482 177.644 146.308 177.764 146.188C177.896 146.056 178.04 145.96 178.196 145.9C178.352 145.84 178.526 145.804 178.718 145.792C178.922 145.78 179.156 145.774 179.42 145.774H184.064V172H178.7V156.916C178.7 156.184 178.736 155.392 178.808 154.54L171.86 168.022C171.644 168.442 171.35 168.76 170.978 168.976C170.618 169.192 170.204 169.3 169.736 169.3H168.908C168.44 169.3 168.02 169.192 167.648 168.976C167.288 168.76 167 168.442 166.784 168.022L159.8 154.522C159.848 154.942 159.884 155.362 159.908 155.782C159.932 156.19 159.944 156.568 159.944 156.916V172H154.58V145.774H159.224C159.488 145.774 159.716 145.78 159.908 145.792C160.112 145.804 160.292 145.84 160.448 145.9C160.604 145.96 160.742 146.056 160.862 146.188C160.994 146.308 161.12 146.482 161.24 146.71L167.99 160.012ZM205.284 145.774V150.454H194.52V156.574H202.764V161.074H194.52V167.32H205.284V172H188.4V145.774H205.284ZM223.372 151.102C223.192 151.39 223 151.606 222.796 151.75C222.604 151.894 222.352 151.966 222.04 151.966C221.764 151.966 221.464 151.882 221.14 151.714C220.828 151.534 220.468 151.336 220.06 151.12C219.664 150.904 219.208 150.712 218.692 150.544C218.176 150.364 217.588 150.274 216.928 150.274C215.788 150.274 214.936 150.52 214.372 151.012C213.82 151.492 213.544 152.146 213.544 152.974C213.544 153.502 213.712 153.94 214.048 154.288C214.384 154.636 214.822 154.936 215.362 155.188C215.914 155.44 216.538 155.674 217.234 155.89C217.942 156.094 218.662 156.328 219.394 156.592C220.126 156.844 220.84 157.144 221.536 157.492C222.244 157.84 222.868 158.284 223.408 158.824C223.96 159.364 224.404 160.024 224.74 160.804C225.076 161.572 225.244 162.502 225.244 163.594C225.244 164.806 225.034 165.94 224.614 166.996C224.194 168.052 223.582 168.976 222.778 169.768C221.986 170.548 221.002 171.166 219.826 171.622C218.662 172.066 217.336 172.288 215.848 172.288C215.032 172.288 214.198 172.204 213.346 172.036C212.506 171.868 211.69 171.634 210.898 171.334C210.106 171.022 209.362 170.656 208.666 170.236C207.97 169.816 207.364 169.348 206.848 168.832L208.648 165.988C208.78 165.772 208.966 165.598 209.206 165.466C209.446 165.334 209.704 165.268 209.98 165.268C210.34 165.268 210.7 165.382 211.06 165.61C211.432 165.838 211.846 166.09 212.302 166.366C212.77 166.642 213.304 166.894 213.904 167.122C214.504 167.35 215.212 167.464 216.028 167.464C217.132 167.464 217.99 167.224 218.602 166.744C219.214 166.252 219.52 165.478 219.52 164.422C219.52 163.81 219.352 163.312 219.016 162.928C218.68 162.544 218.236 162.226 217.684 161.974C217.144 161.722 216.526 161.5 215.83 161.308C215.134 161.116 214.42 160.906 213.688 160.678C212.956 160.438 212.242 160.15 211.546 159.814C210.85 159.466 210.226 159.016 209.674 158.464C209.134 157.9 208.696 157.204 208.36 156.376C208.024 155.536 207.856 154.504 207.856 153.28C207.856 152.296 208.054 151.336 208.45 150.4C208.846 149.464 209.428 148.63 210.196 147.898C210.964 147.166 211.906 146.584 213.022 146.152C214.138 145.708 215.416 145.486 216.856 145.486C217.66 145.486 218.44 145.552 219.196 145.684C219.964 145.804 220.69 145.99 221.374 146.242C222.058 146.482 222.694 146.776 223.282 147.124C223.882 147.46 224.416 147.844 224.884 148.276L223.372 151.102Z" fill="white"/>
</svg>
