<svg width="307" height="274" viewBox="0 0 307 274" fill="none" xmlns="http://www.w3.org/2000/svg">
<rect width="307" height="274" rx="29" fill="#5EDFFF"/>
<path d="M47.0039 102.774H51.8999C52.4279 102.774 52.8599 102.894 53.1959 103.134C53.5319 103.374 53.7719 103.692 53.9159 104.088L58.9919 118.128C59.2199 118.74 59.4479 119.406 59.6759 120.126C59.9159 120.846 60.1379 121.602 60.3419 122.394C60.5099 121.602 60.7019 120.846 60.9179 120.126C61.1459 119.406 61.3679 118.74 61.5839 118.128L66.6239 104.088C66.7439 103.752 66.9779 103.452 67.3259 103.188C67.6739 102.912 68.0999 102.774 68.6039 102.774H73.5359L63.0239 129H57.5159L47.0039 102.774ZM82.3669 129H76.2469V102.774H82.3669V129ZM101.854 108.102C101.674 108.39 101.482 108.606 101.278 108.75C101.086 108.894 100.834 108.966 100.522 108.966C100.246 108.966 99.9461 108.882 99.6221 108.714C99.3101 108.534 98.9501 108.336 98.5421 108.12C98.1461 107.904 97.6901 107.712 97.1741 107.544C96.6581 107.364 96.0701 107.274 95.4101 107.274C94.2701 107.274 93.4181 107.52 92.8541 108.012C92.3021 108.492 92.0261 109.146 92.0261 109.974C92.0261 110.502 92.1941 110.94 92.5301 111.288C92.8661 111.636 93.3041 111.936 93.8441 112.188C94.3961 112.44 95.0201 112.674 95.7161 112.89C96.4241 113.094 97.1441 113.328 97.8761 113.592C98.6081 113.844 99.3221 114.144 100.018 114.492C100.726 114.84 101.35 115.284 101.89 115.824C102.442 116.364 102.886 117.024 103.222 117.804C103.558 118.572 103.726 119.502 103.726 120.594C103.726 121.806 103.516 122.94 103.096 123.996C102.676 125.052 102.064 125.976 101.26 126.768C100.468 127.548 99.4841 128.166 98.3081 128.622C97.1441 129.066 95.8181 129.288 94.3301 129.288C93.5141 129.288 92.6801 129.204 91.8281 129.036C90.9881 128.868 90.1721 128.634 89.3801 128.334C88.5881 128.022 87.8441 127.656 87.1481 127.236C86.4521 126.816 85.8461 126.348 85.3301 125.832L87.1301 122.988C87.2621 122.772 87.4481 122.598 87.6881 122.466C87.9281 122.334 88.1861 122.268 88.4621 122.268C88.8221 122.268 89.1821 122.382 89.5421 122.61C89.9141 122.838 90.3281 123.09 90.7841 123.366C91.2521 123.642 91.7861 123.894 92.3861 124.122C92.9861 124.35 93.6941 124.464 94.5101 124.464C95.6141 124.464 96.4721 124.224 97.0841 123.744C97.6961 123.252 98.0021 122.478 98.0021 121.422C98.0021 120.81 97.8341 120.312 97.4981 119.928C97.1621 119.544 96.7181 119.226 96.1661 118.974C95.6261 118.722 95.0081 118.5 94.3121 118.308C93.6161 118.116 92.9021 117.906 92.1701 117.678C91.4381 117.438 90.7241 117.15 90.0281 116.814C89.3321 116.466 88.7081 116.016 88.1561 115.464C87.6161 114.9 87.1781 114.204 86.8421 113.376C86.5061 112.536 86.3381 111.504 86.3381 110.28C86.3381 109.296 86.5361 108.336 86.9321 107.4C87.3281 106.464 87.9101 105.63 88.6781 104.898C89.4461 104.166 90.3881 103.584 91.5041 103.152C92.6201 102.708 93.8981 102.486 95.3381 102.486C96.1421 102.486 96.9221 102.552 97.6781 102.684C98.4461 102.804 99.1721 102.99 99.8561 103.242C100.54 103.482 101.176 103.776 101.764 104.124C102.364 104.46 102.898 104.844 103.366 105.276L101.854 108.102ZM117.658 124.194C118.474 124.194 119.2 124.062 119.836 123.798C120.484 123.522 121.03 123.132 121.474 122.628C121.918 122.124 122.254 121.512 122.482 120.792C122.722 120.06 122.842 119.232 122.842 118.308V102.774H128.926V118.308C128.926 119.916 128.662 121.392 128.134 122.736C127.618 124.08 126.874 125.238 125.902 126.21C124.93 127.182 123.748 127.938 122.356 128.478C120.964 129.018 119.398 129.288 117.658 129.288C115.906 129.288 114.334 129.018 112.942 128.478C111.55 127.938 110.368 127.182 109.396 126.21C108.424 125.238 107.68 124.08 107.164 122.736C106.648 121.392 106.39 119.916 106.39 118.308V102.774H112.474V118.29C112.474 119.214 112.588 120.042 112.816 120.774C113.056 121.494 113.398 122.112 113.842 122.628C114.286 123.132 114.826 123.522 115.462 123.798C116.11 124.062 116.842 124.194 117.658 124.194ZM156.365 129H151.649C151.121 129 150.683 128.88 150.335 128.64C149.999 128.388 149.765 128.07 149.633 127.686L148.085 123.114H138.113L136.565 127.686C136.445 128.022 136.211 128.328 135.863 128.604C135.515 128.868 135.089 129 134.585 129H129.833L139.985 102.774H146.213L156.365 129ZM139.517 118.974H146.681L144.269 111.792C144.113 111.336 143.927 110.802 143.711 110.19C143.507 109.566 143.303 108.894 143.099 108.174C142.907 108.906 142.709 109.584 142.505 110.208C142.301 110.832 142.109 111.372 141.929 111.828L139.517 118.974ZM164.584 124.14H174.304V129H158.5V102.774H164.584V124.14ZM183.828 129H177.708V102.774H183.828V129ZM207.887 102.774V104.97C207.887 105.282 207.833 105.588 207.725 105.888C207.629 106.188 207.491 106.47 207.311 106.734L194.999 124.32H207.491V129H187.259V126.66C187.259 126.384 187.307 126.114 187.403 125.85C187.499 125.574 187.631 125.322 187.799 125.094L200.147 107.454H188.267V102.774H207.887ZM235.08 129H230.364C229.836 129 229.398 128.88 229.05 128.64C228.714 128.388 228.48 128.07 228.348 127.686L226.8 123.114H216.828L215.28 127.686C215.16 128.022 214.926 128.328 214.578 128.604C214.23 128.868 213.804 129 213.3 129H208.548L218.7 102.774H224.928L235.08 129ZM218.232 118.974H225.396L222.984 111.792C222.828 111.336 222.642 110.802 222.426 110.19C222.222 109.566 222.018 108.894 221.814 108.174C221.622 108.906 221.424 109.584 221.22 110.208C221.016 110.832 220.824 111.372 220.644 111.828L218.232 118.974ZM243.299 119.298V129H237.215V102.774H245.747C247.643 102.774 249.257 102.972 250.589 103.368C251.933 103.752 253.025 104.292 253.865 104.988C254.717 105.684 255.335 106.506 255.719 107.454C256.103 108.402 256.295 109.434 256.295 110.55C256.295 111.402 256.181 112.206 255.953 112.962C255.725 113.718 255.383 114.42 254.927 115.068C254.483 115.704 253.931 116.274 253.271 116.778C252.623 117.282 251.873 117.696 251.021 118.02C251.429 118.224 251.807 118.476 252.155 118.776C252.515 119.076 252.827 119.442 253.091 119.874L258.671 129H253.163C252.143 129 251.411 128.616 250.967 127.848L246.611 120.234C246.419 119.898 246.191 119.658 245.927 119.514C245.675 119.37 245.315 119.298 244.847 119.298H243.299ZM243.299 115.104H245.747C246.575 115.104 247.277 115.002 247.853 114.798C248.441 114.582 248.921 114.288 249.293 113.916C249.665 113.544 249.935 113.112 250.103 112.62C250.271 112.116 250.355 111.576 250.355 111C250.355 109.848 249.977 108.948 249.221 108.3C248.477 107.652 247.319 107.328 245.747 107.328H243.299V115.104ZM98.9366 145.774V150.454H88.1726V156.574H96.4166V161.074H88.1726V167.32H98.9366V172H82.0526V145.774H98.9366ZM108.87 158.518L100.752 145.774H106.836C107.232 145.774 107.52 145.828 107.7 145.936C107.892 146.032 108.06 146.2 108.204 146.44L113.424 155.278C113.484 155.122 113.55 154.972 113.622 154.828C113.706 154.684 113.796 154.534 113.892 154.378L118.464 146.53C118.764 146.026 119.172 145.774 119.688 145.774H125.52L117.294 158.248L125.7 172H119.616C119.22 172 118.896 171.904 118.644 171.712C118.404 171.52 118.212 171.292 118.068 171.028L112.812 161.848C112.716 162.112 112.608 162.34 112.488 162.532L107.592 171.028C107.448 171.28 107.256 171.508 107.016 171.712C106.776 171.904 106.476 172 106.116 172H100.428L108.87 158.518ZM152.445 172H147.729C147.201 172 146.763 171.88 146.415 171.64C146.079 171.388 145.845 171.07 145.713 170.686L144.165 166.114H134.193L132.645 170.686C132.525 171.022 132.291 171.328 131.943 171.604C131.595 171.868 131.169 172 130.665 172H125.913L136.065 145.774H142.293L152.445 172ZM135.597 161.974H142.761L140.349 154.792C140.193 154.336 140.007 153.802 139.791 153.19C139.587 152.566 139.383 151.894 139.179 151.174C138.987 151.906 138.789 152.584 138.585 153.208C138.381 153.832 138.189 154.372 138.009 154.828L135.597 161.974ZM167.99 160.012C168.23 160.468 168.458 160.942 168.674 161.434C168.902 161.926 169.118 162.43 169.322 162.946C169.526 162.418 169.742 161.908 169.97 161.416C170.198 160.912 170.432 160.426 170.672 159.958L177.404 146.71C177.524 146.482 177.644 146.308 177.764 146.188C177.896 146.056 178.04 145.96 178.196 145.9C178.352 145.84 178.526 145.804 178.718 145.792C178.922 145.78 179.156 145.774 179.42 145.774H184.064V172H178.7V156.916C178.7 156.184 178.736 155.392 178.808 154.54L171.86 168.022C171.644 168.442 171.35 168.76 170.978 168.976C170.618 169.192 170.204 169.3 169.736 169.3H168.908C168.44 169.3 168.02 169.192 167.648 168.976C167.288 168.76 167 168.442 166.784 168.022L159.8 154.522C159.848 154.942 159.884 155.362 159.908 155.782C159.932 156.19 159.944 156.568 159.944 156.916V172H154.58V145.774H159.224C159.488 145.774 159.716 145.78 159.908 145.792C160.112 145.804 160.292 145.84 160.448 145.9C160.604 145.96 160.742 146.056 160.862 146.188C160.994 146.308 161.12 146.482 161.24 146.71L167.99 160.012ZM205.284 145.774V150.454H194.52V156.574H202.764V161.074H194.52V167.32H205.284V172H188.4V145.774H205.284ZM223.372 151.102C223.192 151.39 223 151.606 222.796 151.75C222.604 151.894 222.352 151.966 222.04 151.966C221.764 151.966 221.464 151.882 221.14 151.714C220.828 151.534 220.468 151.336 220.06 151.12C219.664 150.904 219.208 150.712 218.692 150.544C218.176 150.364 217.588 150.274 216.928 150.274C215.788 150.274 214.936 150.52 214.372 151.012C213.82 151.492 213.544 152.146 213.544 152.974C213.544 153.502 213.712 153.94 214.048 154.288C214.384 154.636 214.822 154.936 215.362 155.188C215.914 155.44 216.538 155.674 217.234 155.89C217.942 156.094 218.662 156.328 219.394 156.592C220.126 156.844 220.84 157.144 221.536 157.492C222.244 157.84 222.868 158.284 223.408 158.824C223.96 159.364 224.404 160.024 224.74 160.804C225.076 161.572 225.244 162.502 225.244 163.594C225.244 164.806 225.034 165.94 224.614 166.996C224.194 168.052 223.582 168.976 222.778 169.768C221.986 170.548 221.002 171.166 219.826 171.622C218.662 172.066 217.336 172.288 215.848 172.288C215.032 172.288 214.198 172.204 213.346 172.036C212.506 171.868 211.69 171.634 210.898 171.334C210.106 171.022 209.362 170.656 208.666 170.236C207.97 169.816 207.364 169.348 206.848 168.832L208.648 165.988C208.78 165.772 208.966 165.598 209.206 165.466C209.446 165.334 209.704 165.268 209.98 165.268C210.34 165.268 210.7 165.382 211.06 165.61C211.432 165.838 211.846 166.09 212.302 166.366C212.77 166.642 213.304 166.894 213.904 167.122C214.504 167.35 215.212 167.464 216.028 167.464C217.132 167.464 217.99 167.224 218.602 166.744C219.214 166.252 219.52 165.478 219.52 164.422C219.52 163.81 219.352 163.312 219.016 162.928C218.68 162.544 218.236 162.226 217.684 161.974C217.144 161.722 216.526 161.5 215.83 161.308C215.134 161.116 214.42 160.906 213.688 160.678C212.956 160.438 212.242 160.15 211.546 159.814C210.85 159.466 210.226 159.016 209.674 158.464C209.134 157.9 208.696 157.204 208.36 156.376C208.024 155.536 207.856 154.504 207.856 153.28C207.856 152.296 208.054 151.336 208.45 150.4C208.846 149.464 209.428 148.63 210.196 147.898C210.964 147.166 211.906 146.584 213.022 146.152C214.138 145.708 215.416 145.486 216.856 145.486C217.66 145.486 218.44 145.552 219.196 145.684C219.964 145.804 220.69 145.99 221.374 146.242C222.058 146.482 222.694 146.776 223.282 147.124C223.882 147.46 224.416 147.844 224.884 148.276L223.372 151.102Z" fill="white"/>
</svg>
